<?xml version="1.0" encoding="UTF-8"?>
<svg width="20px" height="17px" viewBox="0 0 20 17" version="1.1" xmlns="http://www.w3.org/2000/svg" xmlns:xlink="http://www.w3.org/1999/xlink">
    <!-- Generator: Sketch 43.2 (39069) - http://www.bohemiancoding.com/sketch -->
    <title>Fill 6</title>
    <desc>Created with Sketch.</desc>
    <defs></defs>
    <g id="Homepage" stroke="none" stroke-width="1" fill="none" fill-rule="evenodd">
        <g id="Homepage-Tablet" transform="translate(-53.000000, -34.000000)" fill="#FFFFFF">
            <g id="Header" transform="translate(40.000000, 21.000000)">
                <g id="Logo" transform="translate(0.000000, 0.000000)">
                    <path d="M22.6979625,29.0934995 C19.7219354,29.0934995 16.7460054,29.0939869 13.7699783,29.0930121 C13.1343937,29.0928172 13.1097391,29.0670826 13.1086713,28.4362947 C13.1075065,27.6404744 13.1312876,26.8435818 13.0996442,26.0489313 C13.0803282,25.5640697 13.2752357,25.4320828 13.7275607,25.4399786 C14.9564095,25.4611316 16.1862289,25.4312055 17.4149806,25.4529434 C17.8879806,25.4613266 18.0454208,25.2599345 18.0441589,24.8160142 C18.0370731,22.3634372 18.0439648,19.9106653 18.0385291,17.4579908 C18.0372673,16.9253644 17.9194298,16.8236936 17.3614005,16.8223289 C16.1321634,16.819307 14.9027323,16.8092666 13.6737865,16.8280801 C13.2615494,16.8343188 13.0861521,16.7076933 13.1013914,16.2724486 C13.1269196,15.5423293 13.1234253,14.8103579 13.1025562,14.0800437 C13.0913937,13.6886646 13.2144727,13.5292861 13.6264185,13.5302609 C17.7992628,13.5407887 21.9722041,13.5396189 26.1450483,13.5317231 C26.5080731,13.5310407 26.6795878,13.6312494 26.6688135,14.0275024 C26.6480415,14.7903747 26.6496916,15.5545142 26.6685223,16.317484 C26.6779377,16.6996025 26.5325336,16.8313944 26.1559196,16.8267154 C24.9106668,16.8112162 23.6651228,16.819112 22.4197729,16.8222314 C21.8465043,16.8236936 21.7398293,16.9223425 21.7386646,17.5039035 C21.7336172,19.9241174 21.7337142,22.3443313 21.7389558,24.7645452 C21.7402176,25.3666743 21.8229174,25.4432929 22.4062808,25.4441702 C24.3794275,25.4469971 26.3526713,25.4476795 28.3259151,25.4462173 C28.9348068,25.4458274 29.006247,25.3708659 29.0085765,24.7306224 C29.012265,23.7235647 29.0239129,22.7162145 29.0036262,21.7095467 C28.9951815,21.2872667 29.1430122,21.1300327 29.5674795,21.1448496 C30.2944998,21.1703891 31.0231702,21.1622009 31.7506758,21.1479689 C32.1298135,21.1405605 32.2718203,21.3122214 32.2711409,21.6756239 C32.26687,23.9658005 32.2644433,26.2561721 32.2730822,28.5463487 C32.2748293,28.9791564 32.0753598,29.1000306 31.6744795,29.0987634 C28.6823395,29.0890155 25.6901995,29.0934995 22.6979625,29.0934995" id="Fill-6"></path>
                </g>
            </g>
        </g>
    </g>
</svg>