<?xml version="1.0" encoding="UTF-8"?>
<svg width="43px" height="54px" viewBox="0 0 43 54" version="1.1" xmlns="http://www.w3.org/2000/svg" xmlns:xlink="http://www.w3.org/1999/xlink">
    <!-- Generator: Sketch 43.2 (39069) - http://www.bohemiancoding.com/sketch -->
    <title>Fill 4</title>
    <desc>Created with Sketch.</desc>
    <defs></defs>
    <g id="Homepage" stroke="none" stroke-width="1" fill="none" fill-rule="evenodd">
        <g id="Homepage-Tablet" transform="translate(-40.000000, -21.000000)" fill="#FFFFFF">
            <g id="Header" transform="translate(40.000000, 21.000000)">
                <g id="Logo" transform="translate(0.000000, 0.000000)">
                    <path d="M21.5164429,0.0976741708 C28.3912014,0.09777165 35.2658628,0.09777165 42.1406212,0.0978691292 C42.9564564,0.0978691292 42.9566506,0.0983565253 42.9567476,0.89359194 L42.9567476,15.5625563 C42.9567476,16.2329208 42.9519914,16.2387696 42.2723391,16.2393544 C41.0914406,16.2403292 39.910154,16.220151 38.7300321,16.2485175 C38.2552849,16.2599225 38.1240524,16.0905037 38.1260907,15.6305967 C38.141233,12.2030327 38.1346325,8.77537114 38.133953,5.34770959 C38.1337589,4.6109617 38.0629982,4.53931448 37.3335512,4.53931448 C26.7545806,4.53892457 16.175707,4.53882709 5.59663928,4.53931448 C4.86544515,4.53931448 4.8155535,4.58873644 4.8155535,5.30608597 C4.81516524,16.0763692 4.81516524,26.8466524 4.8155535,37.6169356 C4.8155535,38.3315557 4.87185147,38.3890685 5.59324199,38.3891659 C16.1883255,38.3900433 26.7835061,38.3901407 37.3785896,38.3897508 C38.0451381,38.3897508 38.1330795,38.3022145 38.1333707,37.6315575 C38.1348266,34.4151334 38.1336619,31.1986118 38.1344384,27.9821877 C38.1346325,27.3029526 38.144242,27.2945694 38.8068108,27.2943744 C39.9877093,27.294082 41.1687047,27.3065593 42.3492149,27.2880383 C42.7765941,27.2813122 42.9637363,27.4135915 42.9628628,27.8700867 C42.9532533,32.8734997 42.9512149,37.8769127 42.9649011,42.8802282 C42.9663571,43.4103202 42.693409,43.4376144 42.2904903,43.4373219 C34.3805287,43.4312782 26.470567,43.4329354 18.5606054,43.4331303 C17.6843955,43.4331303 17.6518786,43.4652984 17.6517815,44.3262349 C17.6516844,47.1202815 17.6528492,49.9144257 17.6508108,52.7084723 C17.6502284,53.4537984 17.5577251,53.5043901 16.909716,53.1331893 C11.4492984,50.0054712 5.99140451,46.8733667 0.523804063,43.7584184 C0.132436117,43.5354835 -0.000349435666,43.286814 3.88261851e-05,42.8395794 C0.0118808126,28.8366905 0.009648307,14.8336067 0.00974537246,0.830717848 C0.00974537246,0.104595195 0.0173164786,0.0975766916 0.746763431,0.0975766916 C7.66995756,0.0975766916 14.5932488,0.0975766916 21.5164429,0.0976741708" id="Fill-4"></path>
                </g>
            </g>
        </g>
    </g>
</svg>